#!OML:ASF H:\ManfredObstacles\Project 1\Capture day 2\Session 1\male.ASF
:FULLY-SPECIFIED
:DEGREES
332
root 2.74688 10.2188 1.18416 -160.758 -4.86329 172.449
lowerback 44.5974 3.03175 -0.835836
upperback 19.808 -5.10694 1.50891
thorax 1.71218 -5.62928 3.67769
lowerneck -34.2991 1.22404 0.920242
upperneck 20.2776 0.474665 2.91309
head 12.2622 0.748719 1.08364
rclavicle 6.34123e-014 -1.23743e-014
rhumerus 29.7369 7.88902 -75.0637
rradius 43.1087
rwrist 28.5096
rhand -19.9027 -12.1913
rfingers 7.12502
rthumb 6.43376 -42.0736
lclavicle 6.34123e-014 -1.23743e-014
lhumerus 33.3036 13.5721 76.5697
lradius 18.6832
lwrist -55.5991
lhand -2.26583 4.49102
lfingers 7.12502
lthumb 23.4184 33.0861
rfemur -94.4047 4.53393 22.6257
rtibia 116.021
rfoot -25.1609 -26.6714
rtoes -16.7229
lfemur -79.5852 11.3827 -20.8779
ltibia 131.866
lfoot -7.51189 26.657
ltoes -6.591
333
root 2.74639 10.2182 1.10357 -161.073 -4.62071 172.462
lowerback 44.2969 3.04353 -0.755117
upperback 20.1488 -5.23809 1.26802
thorax 2.16147 -5.72849 3.3742
lowerneck -33.9562 1.28454 0.848317
upperneck 20.0919 0.586931 2.98972
head 12.1288 0.800858 1.14023
rclavicle -1.33186e-014 -5.30755e-014
rhumerus 30.3419 8.14027 -74.9166
rradius 43.223
rwrist 28.7304
rhand -20.4815 -12.1735
rfingers 7.12502
rthumb 5.87495 -42.072
lclavicle -1.33186e-014 -5.30755e-014
lhumerus 32.8937 12.6864 75.0502
lradius 19.2827
lwrist -54.1385
lhand -2.23138 4.5286
lfingers 7.12502
lthumb 23.4515 33.1194
rfemur -93.9046 4.67456 22.7765
rtibia 116.467
rfoot -24.9682 -26.8209
rtoes -17.575
lfemur -81.0653 10.8098 -21.285
ltibia 131.393
lfoot -7.81651 27.1298
ltoes -6.72879
334
root 2.74387 10.2133 1.02382 -161.419 -4.44705 172.444
lowerback 43.9105 3.11115 -0.824576
upperback 20.5907 -5.42759 1.24608
thorax 2.77836 -5.91244 3.37807
lowerneck -33.8598 1.30859 0.400749
upperneck 19.9383 0.821804 3.0576
head 12.0444 0.874336 1.27921
rclavicle 2.82274e-014 7.95139e-016
rhumerus 31.3299 8.60466 -74.3783
rradius 43.3171
rwrist 28.924
rhand -20.9915 -12.167
rfingers 7.12502
rthumb 5.38259 -42.0787
lclavicle 2.82274e-014 7.95139e-016
lhumerus 32.6875 12.3278 74.0823
lradius 19.9101
lwrist -53.0598
lhand -2.30589 4.57094
lfingers 7.12502
lthumb 23.38 33.1709
rfemur -93.4384 4.69941 22.9645
rtibia 116.987
rfoot -24.7096 -26.9954
rtoes -18.359
lfemur -82.5542 10.0702 -21.7303
ltibia 130.871
lfoot -8.01074 27.5515
ltoes -6.85709
335
root 2.73961 10.2051 0.944741 -161.816 -4.32208 172.414
lowerback 43.7355 3.29202 -0.912407
upperback 20.9179 -5.44478 1.40391
thorax 3.21896 -6.01789 3.54694
lowerneck -33.8615 1.23226 -0.0199031
upperneck 19.9172 0.931301 2.98652
head 12.0307 0.873864 1.33875
rclavicle 4.37326e-015 3.78436e-014
rhumerus 32.1937 8.79713 -73.6035
rradius 43.4135
rwrist 29.1426
rhand -21.4423 -12.1379
rfingers 7.12502
rthumb 4.94732 -42.0601
lclavicle 4.37326e-015 3.78436e-014
lhumerus 32.5216 11.773 73.4591
lradius 20.5703
lwrist -52.2195
lhand -2.44927 4.64606
lfingers 7.12502
lthumb 23.2424 33.2634
rfemur -92.9524 4.63116 23.201
rtibia 117.561
rfoot -24.4203 -27.1795
rtoes -18.9144
lfemur -83.9899 9.22614 -22.1855
ltibia 130.28
lfoot -8.08436 27.9143
ltoes -7.00788
336
root 2.73425 10.1951 0.866203 -162.28 -4.22513 172.37
lowerback 43.8328 3.49798 -1.02373
upperback 21.0948 -5.39873 1.64993
thorax 3.42234 -6.08852 3.83184
lowerneck -33.8573 1.11199 -0.478367
upperneck 20.0092 1.00697 2.86604
head 12.0611 0.847325 1.38036
rclavicle -3.8763e-014 -1.21259e-014
rhumerus 32.9361 8.94983 -72.6829
rradius 43.5145
rwrist 29.2133
rhand -21.8134 -12.1054
rfingers 7.12502
rthumb 4.58895 -42.0357
lclavicle -3.8763e-014 -1.21259e-014
lhumerus 32.2616 11.1433 73.0058
lradius 21.2637
lwrist -51.4523
lhand -2.65204 4.77838
lfingers 7.12502
lthumb 23.0479 33.4202
rfemur -92.4008 4.49065 23.4698
rtibia 118.164
rfoot -24.1536 -27.3575
rtoes -19.2335
lfemur -85.3244 8.31746 -22.6387
ltibia 129.593
lfoot -8.05036 28.1812
ltoes -7.13153
337
root 2.72813 10.1835 0.788191 -162.8 -4.12787 172.325
lowerback 44.1682 3.60353 -1.18849
upperback 21.1081 -5.46052 1.86694
thorax 3.38481 -6.19992 4.17799
lowerneck -33.7408 1.05113 -1.06497
upperneck 20.2034 1.21879 2.77047
head 12.1082 0.872825 1.47856
rclavicle 1.55052e-014 -4.64659e-015
rhumerus 33.6191 9.41448 -71.7533
rradius 43.5985
rwrist 29.1621
rhand -22.0856 -12.0915
rfingers 7.12502
rthumb 4.32612 -42.0273
lclavicle 1.55052e-014 -4.64659e-015
lhumerus 31.7235 10.7408 72.545
lradius 22.0091
lwrist -50.6603
lhand -2.90125 4.96349
lfingers 7.12502
lthumb 22.8087 33.6349
rfemur -91.781 4.31791 23.7535
rtibia 118.778
rfoot -23.9763 -27.4931
rtoes -19.302
lfemur -86.5375 7.42598 -23.0797
ltibia 128.82
lfoot -7.9677 28.3125
ltoes -7.25855
338
root 2.7215 10.1691 0.710403 -163.345 -4.00681 172.287
lowerback 44.7197 3.52048 -1.31685
upperback 20.9598 -5.69672 1.90987
thorax 3.10718 -6.357 4.40694
lowerneck -33.549 1.09032 -1.71014
upperneck 20.5167 1.57026 2.77681
head 12.1836 0.969434 1.65398
rclavicle 2.90226e-014 -1.4064e-014
rhumerus 34.248 10.2173 -71.018
rradius 43.6427
rwrist 28.9882
rhand -22.2536 -12.1149
rfingers 7.12502
rthumb 4.16388 -42.054
lclavicle 2.90226e-014 -1.4064e-014
lhumerus 30.8687 10.5022 71.8218
lradius 22.8294
lwrist -49.6813
lhand -3.16138 5.19349
lfingers 7.12502
lthumb 22.5591 33.8955
rfemur -91.1241 4.15207 24.029
rtibia 119.394
rfoot -23.9023 -27.5682
rtoes -19.2318
lfemur -87.6597 6.60473 -23.5152
ltibia 127.974
lfoot -7.82071 28.2651
ltoes -7.35688
